<?xml version="1.0" standalone="no"?>
<!DOCTYPE svg PUBLIC "-//W3C//DTD SVG 20010904//EN"
 "http://www.w3.org/TR/2001/REC-SVG-20010904/DTD/svg10.dtd">
<svg version="1.0" xmlns="http://www.w3.org/2000/svg"
 width="2048.000000pt" height="2048.000000pt" viewBox="0 0 2048.000000 2048.000000"
 preserveAspectRatio="xMidYMid meet">

<g transform="translate(0.000000,2048.000000) scale(0.100000,-0.100000)"
fill="#000000" stroke="none">
<path d="M9780 20469 c-2282 -106 -4418 -944 -6156 -2416 -3095 -2619 -4347
-6796 -3209 -10703 926 -3178 3394 -5746 6544 -6811 2123 -718 4439 -718 6562
0 3015 1019 5401 3405 6420 6420 718 2123 718 4439 0 6562 -1142 3380 -3989
5939 -7466 6713 -872 194 -1814 276 -2695 235z m1065 -6405 c300 -57 538 -281
621 -584 26 -96 24 -309 -4 -411 -65 -240 -253 -446 -484 -533 -146 -55 -361
-72 -520 -42 -263 51 -488 226 -590 461 -50 114 -62 179 -62 330 1 123 4 151
28 230 64 213 208 381 411 481 179 88 375 110 600 68z m2730 0 c300 -57 538
-281 621 -584 26 -96 24 -309 -4 -411 -65 -240 -253 -446 -484 -533 -146 -55
-361 -72 -520 -42 -263 51 -488 226 -590 461 -50 114 -62 179 -62 330 1 123 4
151 28 230 64 213 208 381 411 481 179 88 375 110 600 68z m2730 0 c300 -57
538 -281 621 -584 26 -96 24 -309 -4 -411 -65 -240 -253 -446 -484 -533 -146
-55 -361 -72 -520 -42 -263 51 -488 226 -590 461 -50 114 -62 179 -62 330 1
123 4 151 28 230 64 213 208 381 411 481 179 88 375 110 600 68z m-10733
-2481 l3 -2067 904 1143 c498 629 911 1149 919 1157 11 12 155 14 892 14 483
0 881 -4 884 -8 2 -4 -511 -595 -1141 -1312 -630 -718 -1167 -1330 -1194
-1361 l-48 -56 1204 -1352 c663 -743 1205 -1354 1205 -1356 0 -3 -400 -5 -889
-5 l-889 0 -918 1155 c-506 635 -922 1154 -926 1155 -5 0 -8 -520 -8 -1155 l0
-1155 -685 0 -685 0 0 3635 0 3635 685 0 685 0 2 -2067z m5746 -2480 l2 -2723
-685 0 -685 0 0 2725 0 2725 683 -2 682 -3 3 -2722z m2730 0 l2 -2723 -685 0
-685 0 0 2725 0 2725 683 -2 682 -3 3 -2722z m2730 0 l2 -2723 -685 0 -685 0
0 2725 0 2725 683 -2 682 -3 3 -2722z"/>
</g>
</svg>
